<svg viewBox="0 0 220 280" fill="none" xmlns="http://www.w3.org/2000/svg">
  <defs>
    <linearGradient id="pf-body" x1="0" y1="0" x2="1" y2="1">
      <stop offset="0%" stop-color="#3d0068"/>
      <stop offset="35%" stop-color="#1f0038"/>
      <stop offset="100%" stop-color="#0a0018"/>
    </linearGradient>
    <linearGradient id="pf-facet-l" x1="0" y1="0" x2="1" y2="0">
      <stop offset="0%" stop-color="#2e0052"/>
      <stop offset="100%" stop-color="#1a0030"/>
    </linearGradient>
    <linearGradient id="pf-facet-r" x1="0" y1="0" x2="1" y2="0">
      <stop offset="0%" stop-color="#160028"/>
      <stop offset="100%" stop-color="#0d001e"/>
    </linearGradient>
    <linearGradient id="pf-gold" x1="0" y1="0" x2="0" y2="1">
      <stop offset="0%" stop-color="#f0da90"/>
      <stop offset="35%" stop-color="#C9A876"/>
      <stop offset="72%" stop-color="#9a6e2e"/>
      <stop offset="100%" stop-color="#c4a060"/>
    </linearGradient>
    <radialGradient id="pf-cap" cx="35%" cy="30%" r="68%">
      <stop offset="0%" stop-color="#c44a99"/>
      <stop offset="55%" stop-color="#8d0f69"/>
      <stop offset="100%" stop-color="#4a0535"/>
    </radialGradient>
    <linearGradient id="pf-shine" x1="0" y1="0" x2="0" y2="1">
      <stop offset="0%" stop-color="rgba(255,255,255,0.2)"/>
      <stop offset="100%" stop-color="rgba(255,255,255,0)"/>
    </linearGradient>
    <radialGradient id="pf-glow" cx="50%" cy="50%" r="50%">
      <stop offset="0%" stop-color="#8d0f69" stop-opacity="0.14"/>
      <stop offset="100%" stop-color="#8d0f69" stop-opacity="0"/>
    </radialGradient>
  </defs>

  <ellipse cx="110" cy="148" rx="60" ry="84" fill="url(#pf-glow)"/>
  <ellipse cx="110" cy="266" rx="52" ry="7.5" fill="rgba(31,0,56,0.18)"/>

  <g transform="translate(110, 145) scale(0.85) translate(-110, -150)">
    <rect x="60" y="224" width="100" height="36" rx="10" fill="url(#pf-body)"/>
    <rect x="62" y="230" width="8" height="26" rx="4" fill="url(#pf-shine)"/>
    <rect x="58" y="252" width="104" height="10" rx="5" fill="url(#pf-gold)"/>
    <rect x="60" y="257" width="100" height="3.5" rx="1.75" fill="rgba(0,0,0,0.14)"/>

    <path d="M60 180 L72 148 L148 148 L160 180 L160 228 L60 228Z" fill="url(#pf-body)"/>
    <path d="M60 180 L72 148 L72 228 L60 228Z" fill="url(#pf-facet-l)"/>
    <path d="M148 148 L160 180 L160 228 L148 228Z" fill="url(#pf-facet-r)"/>
    <rect x="64" y="182" width="7" height="40" rx="3.5" fill="url(#pf-shine)"/>
    <ellipse cx="68" cy="178" rx="4" ry="2.5" fill="rgba(255,255,255,0.16)"/>

    <rect x="76" y="184" width="68" height="52" rx="8" fill="rgba(255,255,255,0.05)" stroke="rgba(201,168,118,0.24)" stroke-width="0.8"/>
    <rect x="84" y="194" width="52" height="2.5" rx="1.25" fill="rgba(237,195,255,0.52)"/>
    <rect x="88" y="201" width="44" height="1.8" rx="0.9" fill="rgba(237,195,255,0.34)"/>
    <rect x="86" y="207" width="48" height="1.8" rx="0.9" fill="rgba(237,195,255,0.24)"/>
    <rect x="90" y="213" width="40" height="1.8" rx="0.9" fill="rgba(237,195,255,0.16)"/>
    <path d="M106 228 L110 220 L114 228" stroke="#C9A876" stroke-width="1.6" fill="none" stroke-linecap="round" stroke-linejoin="round"/>
    <path d="M110 220 L110 228" stroke="#C9A876" stroke-width="1.2" fill="none" stroke-linecap="round"/>

    <path d="M72 148 L84 116 L136 116 L148 148Z" fill="url(#pf-body)"/>
    <path d="M72 148 L84 116 L84 148Z" fill="url(#pf-facet-l)"/>
    <path d="M136 116 L148 148 L136 148Z" fill="url(#pf-facet-r)"/>

    <path d="M84 116 L96 90 L124 90 L136 116Z" fill="#240040"/>
    <path d="M84 116 L96 90 L96 116Z" fill="rgba(50,0,80,0.6)"/>
    <path d="M124 90 L136 116 L124 116Z" fill="rgba(20,0,32,0.6)"/>

    <rect x="94" y="66" width="32" height="28" rx="8" fill="#2a004a"/>
    <rect x="96" y="70" width="6" height="20" rx="3" fill="rgba(255,255,255,0.1)"/>

    <rect x="88" y="108" width="44" height="12" rx="6" fill="url(#pf-gold)"/>
    <rect x="90" y="114" width="40" height="4" rx="2" fill="rgba(0,0,0,0.14)"/>
    <rect x="92" y="109" width="16" height="2.5" rx="1.25" fill="rgba(255,255,255,0.22)"/>
    <rect x="84" y="114" width="52" height="4" rx="2" fill="rgba(201,168,118,0.4)"/>

    <rect x="84" y="38" width="52" height="32" rx="10" fill="url(#pf-cap)"/>
    <path d="M84 48 L96 38 L124 38 L136 48Z" fill="rgba(196,74,153,0.6)"/>
    <ellipse cx="110" cy="38" rx="26" ry="10" fill="#b01a80"/>
    <ellipse cx="100" cy="34" rx="10" ry="5" fill="rgba(255,255,255,0.18)"/>
    <rect x="86" y="44" width="6" height="22" rx="3" fill="rgba(255,255,255,0.12)"/>
  </g>

  <g transform="translate(0, 4)">
    <path d="M118 32 Q132 18 124 4" stroke="rgba(237,195,255,0.38)" stroke-width="3" fill="none" stroke-linecap="round"/>
    <path d="M108 28 Q122 10 112 -4" stroke="rgba(237,195,255,0.22)" stroke-width="2" fill="none" stroke-linecap="round"/>
    <path d="M126 28 Q140 12 130 -2" stroke="rgba(209,90,173,0.2)" stroke-width="2.5" fill="none" stroke-linecap="round"/>

    <path d="M186 78 l2.3 5.7 5.7 0 -4.5 3.4 2.3 5.7 -5.8-3.5 -5.8 3.5 2.3-5.7 -4.5-3.4 5.7 0Z" fill="rgba(201,168,118,0.62)"/>
    <path d="M30 116 l1.5 3.8 3.8 0 -3 2.2 1.5 3.8 -3.8-2.3 -3.8 2.3 1.5-3.8 -3-2.2 3.8 0Z" fill="rgba(141,15,105,0.52)"/>
    <circle cx="196" cy="164" r="4.5" fill="rgba(237,195,255,0.55)"/>
    <circle cx="204" cy="182" r="2.8" fill="rgba(201,168,118,0.44)"/>
    <circle cx="190" cy="150" r="2" fill="rgba(237,195,255,0.35)"/>
    <circle cx="28" cy="188" r="3.5" fill="rgba(141,15,105,0.28)"/>
    <circle cx="22" cy="205" r="2.2" fill="rgba(141,15,105,0.18)"/>
    <circle cx="34" cy="172" r="2" fill="rgba(237,195,255,0.4)"/>
  </g>
</svg>
